<svg xmlns="http://www.w3.org/2000/svg" xmlns:xlink="http://www.w3.org/1999/xlink" width="74" height="74" viewBox="0 0 74 74">
    <defs>
        <path id="a" d="M.072.139h73.53V69.18H.071z"/>
    </defs>
    <g fill="none" fill-rule="evenodd">
        <path fill="#10384F" d="M41.435 12.191a3.093 3.093 0 0 1-2.152 5.305H32.19V7.313h6.975a2.969 2.969 0 0 1 2.27 4.878zm-6.82 3.123h4.367a.968.968 0 0 0 .967-.971.968.968 0 0 0-.967-.97h-4.366v1.94zm0-4.121h4.242a.85.85 0 0 0 .849-.849.85.85 0 0 0-.85-.848h-4.24v1.697zM36.796 22.047l-1.788 3.698h3.575l-1.787-3.698zm6.27 7.575h-2.603l-.82-1.697h-5.696l-.82 1.697h-2.602l5.09-10.18h2.36l5.091 10.18zM40.253 31.804h2.917l-5.162 6.628v3.552h-2.425v-3.552l-5.161-6.628h2.916l3.458 4.635zM53.75 31.804v2.182h-6.786v1.696h6.543v2.18h-6.543v1.94h6.786v2.182h-9.21v-10.18zM62.94 33.986h-3.52v1.938h3.52a.97.97 0 0 0 0-1.938zm-1.702 4.12h-1.819v3.878h-2.423v-10.18h6.19a3.154 3.154 0 0 1 3.143 3.154c0 1.435-.949 2.644-2.262 3.024l2.988 4.002h-2.91l-2.907-3.878zM25.283 34.408l-1.788 3.698h3.575l-1.787-3.698zm6.27 7.576H28.95l-.82-1.697h-5.696l-.82 1.697h-2.602l5.09-10.18h2.36l5.09 10.18zM16.728 36.687a3.093 3.093 0 0 1-2.151 5.306H7.486V31.809h6.975a2.97 2.97 0 0 1 2.267 4.878zm-6.817 3.122h4.365a.968.968 0 0 0 .966-.97.967.967 0 0 0-.966-.97H9.911v1.94zm0-4.12h4.24a.85.85 0 0 0 0-1.697H9.91v1.697zM41.402 44.165v2.182h-6.787v1.697l6.544-.001v2.18h-6.544v1.94h6.787v2.18h-9.21V44.166zM32.191 66.948v-10.18h6.8a3.158 3.158 0 1 1 1.172 6.078l3.057 4.102h-2.91l-2.909-3.877h-2.786v3.877H32.19zm7.51-7.026a.97.97 0 0 0-.961-.971h-4.125v1.938h4.125a.97.97 0 0 0 .96-.967z"/>
        <g transform="translate(0 .12)">
            <mask id="b" fill="#fff">
                <use xlink:href="#a"/>
            </mask>
            <path fill="#89D329" d="M73.529 34.66C72.35 15.397 56.359.139 36.8.139 17.242.139 1.25 15.397.072 34.659a36.602 36.602 0 0 0 7.1 19.549C13.874 63.29 24.65 69.181 36.8 69.181c-17.01 0-30.985-13.244-32.159-29.961a32.655 32.655 0 0 1-.081-2.28c0-.767.028-1.527.081-2.28C5.815 17.942 19.79 4.699 36.801 4.699c12.154 0 22.93 5.893 29.63 14.978a36.609 36.609 0 0 1 6.887 17.28 37 37 0 0 1 .21 2.263c.047-.755.073-1.515.073-2.28 0-.766-.026-1.526-.072-2.28" mask="url(#b)"/>
        </g>
        <path fill="#00BCFF" d="M.073 39.34C1.25 58.603 17.243 73.861 36.8 73.861s35.55-15.258 36.728-34.52a36.602 36.602 0 0 0-7.1-19.549C59.727 10.71 48.953 4.82 36.801 4.82c17.011 0 30.986 13.243 32.16 29.96a32.652 32.652 0 0 1 0 4.56C67.786 56.058 53.811 69.302 36.8 69.302c-12.155 0-22.93-5.894-29.631-14.979a36.608 36.608 0 0 1-6.887-17.28 37.039 37.039 0 0 1-.21-2.263A37.273 37.273 0 0 0 0 37.06c0 .766.026 1.526.073 2.28"/>
    </g>
</svg>