<?xml version="1.0" encoding="UTF-8"?>
<!-- Generator: Adobe Illustrator 16.0.0, SVG Export Plug-In . SVG Version: 6.00 Build 0)  -->
<!DOCTYPE svg PUBLIC "-//W3C//DTD SVG 1.1//EN" "http://www.w3.org/Graphics/SVG/1.1/DTD/svg11.dtd">
<svg version="1.1" id="Layer_1" xmlns="http://www.w3.org/2000/svg" xmlns:xlink="http://www.w3.org/1999/xlink" x="0px" y="0px" width="40px" height="40px" viewBox="0 0 40 40" enable-background="new 0 0 40 40" xml:space="preserve">
<g>
	<g>
		<path fill="#10384F" d="M30.355,28.305c-3.048-0.002-5.52,2.408-5.521,5.384c-0.003,2.975,2.466,5.386,5.514,5.389    c3.047,0.003,5.519-2.407,5.521-5.382V33.69C35.866,30.719,33.4,28.311,30.355,28.305z M30.355,35.06    c-0.775,0-1.403-0.612-1.403-1.369c0-0.756,0.628-1.368,1.403-1.368s1.403,0.612,1.403,1.368    C31.759,34.447,31.131,35.06,30.355,35.06z M37.696,10.225c-0.175-0.046-0.354-0.069-0.535-0.069H13.03l-0.683-2.631    C11.745,5.21,9.609,3.589,7.161,3.589H2.838c-1.137,0-2.058,0.899-2.058,2.008c0,1.109,0.921,2.009,2.058,2.009h4.323    C7.728,7.605,8.22,7.979,8.36,8.513l3.867,14.861c0.602,2.314,2.738,3.936,5.184,3.936h13.602c2.42-0.002,4.536-1.584,5.164-3.864    l2.972-10.759C39.443,11.615,38.794,10.513,37.696,10.225z M32.208,22.39c-0.146,0.525-0.636,0.893-1.195,0.892H17.407    c-0.565,0.001-1.057-0.374-1.197-0.907l-2.136-8.202h20.401L32.208,22.39z M16.876,28.305h-0.02    c-3.04,0.015-5.496,2.421-5.498,5.386c0,2.976,2.469,5.387,5.518,5.387c3.047,0,5.518-2.411,5.518-5.387    C22.395,30.716,19.924,28.305,16.876,28.305z M16.876,35.06c-0.775,0-1.404-0.612-1.404-1.369c0-0.756,0.628-1.368,1.404-1.368    c0.767,0.012,1.382,0.621,1.382,1.368h0.02C18.279,34.447,17.65,35.06,16.876,35.06z"/>
	</g>
</g>
</svg>